<svg width="20" height="20" viewBox="0 0 20 20" fill="none" xmlns="http://www.w3.org/2000/svg">
<g clip-path="url(#clip0_3128_714)">
<path d="M9.88772 6.74702C9.88772 8.48156 8.48156 9.88772 6.74702 9.88772C5.01248 9.88772 3.60632 8.48156 3.60632 6.74702C3.60632 5.01248 5.0124 3.60632 6.74702 3.60632C8.48164 3.60632 9.88772 5.0124 9.88772 6.74702Z" fill="#F09102"/>
<path fill-rule="evenodd" clip-rule="evenodd" d="M6.29835 0.689941C6.67003 0.689941 6.97142 0.99125 6.97142 1.36294V1.81165C6.97142 2.18334 6.67003 2.48465 6.29835 2.48465C5.92666 2.48465 5.62535 2.18334 5.62535 1.81165V1.36294C5.62535 0.99125 5.92666 0.689941 6.29835 0.689941ZM2.33289 2.33265C2.59572 2.06982 3.0218 2.06982 3.28463 2.33265L3.47851 2.52653C3.74134 2.78936 3.74134 3.21544 3.47851 3.47827C3.21567 3.7411 2.7896 3.7411 2.52677 3.47827L2.33289 3.28439C2.07005 3.02156 2.07005 2.59548 2.33289 2.33265ZM10.2638 2.33273C10.5266 2.59556 10.5266 3.02172 10.2638 3.28455L10.0698 3.47843C9.80701 3.74126 9.38094 3.74126 9.1181 3.47843C8.85527 3.2156 8.85527 2.78944 9.1181 2.52661L9.31198 2.33273C9.57482 2.0699 10.001 2.0699 10.2638 2.33273ZM0.689941 6.29835C0.689941 5.92666 0.99125 5.62535 1.36294 5.62535H1.81165C2.18334 5.62535 2.48465 5.92666 2.48465 6.29835C2.48465 6.67003 2.18334 6.97142 1.81165 6.97142H1.36294C0.99125 6.97142 0.689941 6.67003 0.689941 6.29835ZM3.47851 9.1185C3.74134 9.38133 3.74134 9.80749 3.47851 10.0703L3.28463 10.2641C3.0218 10.527 2.59572 10.527 2.33289 10.2641C2.07005 10.0013 2.07005 9.57513 2.33289 9.31238L2.52677 9.1185C2.7896 8.85567 3.21567 8.85567 3.47851 9.1185Z" fill="#F09102"/>
<path d="M14.1822 19.31C17.0142 19.31 19.3099 17.0412 19.3099 14.2425C19.3099 12.0245 17.8679 10.1392 15.8597 9.45262C15.5744 6.92095 13.4017 4.95239 10.7637 4.95239C7.93177 4.95239 5.63601 7.22115 5.63601 10.0198C5.63601 10.6388 5.74835 11.2319 5.95395 11.7802C5.71281 11.7334 5.46367 11.7089 5.20875 11.7089C3.08471 11.7089 1.36292 13.4105 1.36292 15.5094C1.36292 17.6085 3.08471 19.31 5.20867 19.31H14.1822Z" fill="#75501B"/>
</g>
<defs>
<clipPath id="clip0_3128_714">
<rect width="20" height="20" fill="white"/>
</clipPath>
</defs>
</svg>
