<svg width="20" height="20" viewBox="0 0 20 20" fill="none" xmlns="http://www.w3.org/2000/svg">
<g clip-path="url(#clip0_3128_707)">
<path d="M3.28809 16.0623C3.28809 15.7036 3.57887 15.4127 3.93757 15.4127H16.0623C16.421 15.4127 16.7117 15.7036 16.7117 16.0623C16.7117 16.421 16.421 16.7118 16.0623 16.7118H3.93757C3.57887 16.7118 3.28809 16.421 3.28809 16.0623Z" fill="#027DF0"/>
<path d="M4.15417 10C4.15417 11.0201 4.41582 11.9796 4.8753 12.8146H15.1246C15.5842 11.9796 15.8458 11.0201 15.8458 10C15.8458 6.77143 13.2285 4.15417 10 4.15417C6.77143 4.15417 4.15417 6.77143 4.15417 10Z" fill="#027DF0"/>
<path fill-rule="evenodd" clip-rule="evenodd" d="M5.88623 18.6603C5.88623 18.3016 6.17709 18.0109 6.53579 18.0109H13.4641C13.8228 18.0109 14.1137 18.3016 14.1137 18.6603C14.1137 19.0191 13.8228 19.3099 13.4641 19.3099H6.53579C6.17709 19.3099 5.88623 19.0191 5.88623 18.6603Z" fill="#16487A"/>
<path fill-rule="evenodd" clip-rule="evenodd" d="M9.99994 0.689941C10.3586 0.689941 10.6495 0.980721 10.6495 1.3395V2.20551C10.6495 2.56421 10.3586 2.85507 9.99994 2.85507C9.64124 2.85507 9.35038 2.56421 9.35038 2.20551V1.3395C9.35038 0.980721 9.64124 0.689941 9.99994 0.689941ZM0.689941 9.99994C0.689941 9.64124 0.980721 9.35038 1.3395 9.35038H2.20551C2.56421 9.35038 2.85507 9.64124 2.85507 9.99994C2.85507 10.3586 2.56421 10.6495 2.20551 10.6495H1.3395C0.980721 10.6495 0.689941 10.3586 0.689941 9.99994ZM17.1448 9.99994C17.1448 9.64124 17.4357 9.35038 17.7944 9.35038H18.6604C19.0192 9.35038 19.3099 9.64124 19.3099 9.99994C19.3099 10.3586 19.0192 10.6495 18.6604 10.6495H17.7944C17.4357 10.6495 17.1448 10.3586 17.1448 9.99994Z" fill="#16487A"/>
<path fill-rule="evenodd" clip-rule="evenodd" d="M4.87525 12.8146H1.3395C0.980721 12.8146 0.689941 13.1054 0.689941 13.4641C0.689941 13.8228 0.980721 14.1137 1.3395 14.1137H18.6604C19.0192 14.1137 19.3099 13.8228 19.3099 13.4641C19.3099 13.1054 19.0192 12.8146 18.6604 12.8146H4.87525Z" fill="#16487A"/>
<path d="M3.41656 3.41656C3.67021 3.16291 4.08148 3.16291 4.33513 3.41656L4.67531 3.75674C4.92896 4.01039 4.92896 4.42166 4.67531 4.67531C4.42166 4.92896 4.01039 4.92896 3.75674 4.67531L3.41656 4.33513C3.16291 4.08148 3.16291 3.67021 3.41656 3.41656Z" fill="#027DF0"/>
<path d="M16.5826 3.41656C16.8362 3.67021 16.8362 4.08148 16.5826 4.33513L16.2424 4.67531C15.9888 4.92896 15.5775 4.92896 15.3238 4.67531C15.0701 4.42166 15.0701 4.01039 15.3238 3.75674L15.664 3.41656C15.9177 3.16291 16.3289 3.16291 16.5826 3.41656Z" fill="#027DF0"/>
</g>
<defs>
<clipPath id="clip0_3128_707">
<rect width="20" height="20" fill="white"/>
</clipPath>
</defs>
</svg>
